<svg id="Capa_1" data-name="Capa 1" xmlns="http://www.w3.org/2000/svg" viewBox="0 0 676.08 677.23"><path d="M1158.46,701.13c-.41,8.75-.7,14.9-1.11,23.65H1111.2c-24,0-24,0-27.58,24.14l-21.77,1c-.41,7-.81,13.88-1.31,22.62-19.15,0-38.1,0-57,0-14,0-18.89,6.4-14.47,19.88.76,2.35,4.73,4.6,7.54,5.1,4.69.83,9.64.22,14.86.22,3.76,10.31,2.45,16-9.19,18.24C805.89,853,618.3,709.16,603.29,509.88c-.32-4.31,0-8.67,0-13.86H1279L1272,555.17H1159c-.39,5.83-.62,10.55-1,15.24-.61,6.83,2.34,9.74,9.23,9.43,7.09-.31,14.2-.05,21.31-.05,20.77,0,21.07.4,16.92,23.28h-95c-.64,8.26-1.21,15.52-1.89,24.17h-46.29v24.83h70.61c.59,8.75,1.08,16,1.65,24.4h46.52v23.42Z" transform="translate(-602.92 -144.57)"/><path d="M1279,469.56H602.92c.74-39.1,8.09-76.27,22.82-111.6C698.64,183.14,882.6,102.34,1060.8,166.4c26.75,9.62,27.94,12,23,48.6l-21.58,1.4V240h46.29v23.17l-22.58,2.07v23h47.13c.45,8.63.83,15.88,1.26,24.2l22.86,2.17v21.83h-70.84V361.2h94.76v24.59h-46.79v24.28h22.79c34.62,0,69.25.22,103.87-.22,7.84-.09,11.27,2.37,12.08,10.07C1274.75,436.13,1276.9,452.29,1279,469.56ZM819.2,216.45c-53.09,0-97.08,43.29-97.47,95.9-.39,53.49,43.29,97.53,96.94,97.73,54.08.2,98.16-43.24,97.94-96.51C916.37,259.39,873.31,216.45,819.2,216.45Z" transform="translate(-602.92 -144.57)"/></svg>